<svg xmlns="http://www.w3.org/2000/svg" width="64" height="64" viewBox="0 0 64 64" role="img" aria-label="AB monogram">
	<defs>
		<linearGradient id="ab-glow" x1="0%" y1="0%" x2="100%" y2="100%">
			<stop offset="0%" stop-color="#0c301f" />
			<stop offset="100%" stop-color="#07140c" />
		</linearGradient>
	</defs>
	<rect width="64" height="64" rx="16" fill="url(#ab-glow)" />
	<path
		fill="#1ef98a"
		d="M18 46L24.6 18h7.2L38 46h-4.4l-1.4-6.6h-9.6L21.2 46H18Zm7.4-11h8l-4-14.4Z"
	/>
	<path
		fill="#9bf9c9"
		d="M35.8 18H45c5.4 0 8.8 3.3 8.8 8 0 3.4-1.9 6-5 7.2 3.4.8 5.7 3.7 5.7 7.6 0 5.3-3.9 9.2-10.2 9.2H35.8Zm5.2 4.8v7h4.1c2.2 0 3.7-1.4 3.7-3.5s-1.4-3.5-3.7-3.5Zm0 11.8V45h4.6c2.7 0 4.5-1.6 4.5-4.1s-1.8-4.2-4.5-4.2Z"
	/>
</svg>